<svg width="128" height="24" viewBox="0 0 128 24" fill="none" xmlns="http://www.w3.org/2000/svg">
<path d="M37.6537 7.48932V20.8962H34.5503V7.48932H30.1641V4.59277H41.9985V7.48932H37.6537ZM53.7916 20.8962H50.6882V13.8204C50.6882 13.1169 50.4399 11.5031 48.4537 11.5031C47.0882 11.5031 46.0951 12.4548 46.0951 13.8204V20.8962H42.9916V4.63415H46.0951V9.43415C46.8813 8.85484 47.7916 8.48243 48.8675 8.48243C51.8468 8.48243 53.7916 10.6342 53.7916 13.8204V20.8962ZM60.9089 11.5031C58.9227 11.1307 57.6399 12.2066 57.6399 13.9031V20.8962H54.5365V13.9031C54.5365 10.4686 56.8951 8.06864 60.9089 8.56519V11.5031ZM63.7227 16.0548C64.1365 17.5445 65.2951 18.4548 66.7434 18.4548C67.7779 18.4548 68.771 17.9997 69.3089 17.0479H72.6192C71.9158 19.5307 69.7641 21.1859 66.7847 21.1859C63.3916 21.1859 60.5779 18.3721 60.5779 14.8548C60.5779 11.3376 63.3916 8.48243 66.7847 8.48243C70.3434 8.48243 73.3227 11.2548 72.8675 16.0548H63.7227ZM69.8054 13.5307C69.433 12.1238 68.2744 11.2135 66.7847 11.2135C65.3778 11.2135 64.2606 12.1238 63.8054 13.5307H69.8054ZM78.9916 21.1859C75.9296 21.1859 73.6537 19.5721 73.2813 16.9652H76.4261C76.8399 17.9997 78.0813 18.3721 78.9916 18.3721C80.233 18.3721 81.1847 17.9997 81.1847 17.2962C81.1847 16.6342 80.771 16.3445 78.6606 16.0135C76.5089 15.6824 73.6123 15.1031 73.6123 12.4135C73.6123 10.51 75.2675 8.52381 78.7847 8.52381C81.5572 8.52381 83.6261 10.0135 83.9985 12.2893H80.771C80.6054 11.71 79.902 11.2962 78.7434 11.2962C77.2951 11.2962 76.7158 11.7928 76.7158 12.2479C76.7158 12.8686 77.6261 13.0755 79.1158 13.3238C82.1365 13.8204 84.2882 14.4824 84.2882 17.0893C84.2882 19.4893 82.0951 21.1859 78.9916 21.1859ZM95.833 20.8962H92.7296V13.8204C92.7296 13.1169 92.4813 11.5031 90.4951 11.5031C89.0882 11.5031 88.1365 12.4548 88.1365 13.8204V20.8962H85.033V4.63415H88.1365V9.43415C88.9227 8.85484 89.833 8.48243 90.9089 8.48243C93.8468 8.48243 95.833 10.6342 95.833 13.8204V20.8962ZM108.619 14.8548C108.619 18.4548 105.888 21.1859 102.495 21.1859C99.102 21.1859 96.4123 18.4962 96.4123 14.8548C96.4123 11.2135 99.1434 8.48243 102.495 8.48243C105.888 8.52381 108.619 11.2548 108.619 14.8548ZM105.516 14.8962C105.516 12.8273 104.192 11.3376 102.536 11.3376C100.881 11.3376 99.5572 12.7859 99.5572 14.8962C99.5572 16.9238 100.881 18.3307 102.536 18.3307C104.192 18.3307 105.516 16.9238 105.516 14.8962ZM109.157 4.63415H112.261V15.8066C112.261 17.5031 113.047 18.1238 114.578 18.041V20.8548C111.019 21.2273 109.157 19.1169 109.157 15.8066V4.63415ZM126.992 14.8548C126.992 18.3721 124.426 21.1859 120.785 21.1859C117.102 21.1859 114.578 18.3721 114.578 14.8548C114.578 11.379 117.185 8.52381 120.371 8.52381C121.819 8.52381 122.978 8.97898 123.93 9.93071V4.63415H127.033V14.8548H126.992ZM120.785 11.4204C119.088 11.4204 117.681 12.91 117.681 14.8962C117.681 16.8411 119.088 18.2893 120.785 18.2893C122.481 18.2893 123.888 16.7583 123.888 14.8962C123.888 12.9514 122.523 11.4204 120.785 11.4204Z" fill="#291915"/>
<path d="M23.669 0H0V23.669H23.669V0ZM21.1034 5.66897C15.8897 5.66897 14.3172 8.97931 12.4552 12.7862C10.6759 16.5103 8.64827 20.6897 2.89655 20.6897V17.9172C6.74483 17.9172 8.11034 15.5172 10.0138 11.5862C11.8759 7.69655 14.1931 2.89655 21.1448 2.89655C21.1034 2.93793 21.1034 5.66897 21.1034 5.66897Z" fill="#F17F48"/>
</svg>
