<svg xmlns="http://www.w3.org/2000/svg" width="411" height="200" viewBox="0 0 411 200" fill="none">
    <path d="M323.949 0.222222H240.117L219.258 200H272.441L287.699 53.5556H323.905C334.268 53.5556 343.44 57.4222 349.747 64.4889C356.097 71.6444 359.007 81.4222 357.949 92.0444L346.66 200H399.799L410.471 97.6C413.161 71.7778 405.532 47.3778 388.995 28.8444C372.546 10.4444 349.438 0.222222 323.949 0.222222ZM123.387 146.711H87.1815C76.8183 146.711 67.6457 142.844 61.3396 135.778C54.9452 128.622 51.9906 118.8 53.1372 108.178L64.3824 0H11.2432L0.527123 102.622C-2.16291 128.444 5.5103 152.889 22.0033 171.422C38.4963 189.867 61.6483 200 87.1815 200H170.97L191.784 0H138.689L123.387 146.711Z" fill="black"/>
</svg>